<svg version="1.1" id="Layer_1" xmlns="http://www.w3.org/2000/svg" xmlns:xlink="http://www.w3.org/1999/xlink" x="0px" y="0px"
	 viewBox="0 0 60 60" style="enable-background:new 0 0 60 60;" xml:space="preserve">
<style type="text/css">
	.st0{fill:#231F20;}
</style>
<path class="st0" d="M21.48,25.86H8.17c-2.93,0-5.32-2.39-5.32-5.32V7.24c0-2.93,2.39-5.32,5.32-5.32h13.31
	c2.93,0,5.32,2.39,5.32,5.32v13.31C26.8,23.48,24.41,25.86,21.48,25.86z"/>
<path class="st0" d="M52.76,25.86H39.44c-2.93,0-5.32-2.39-5.32-5.32V7.24c0-2.93,2.39-5.32,5.32-5.32h13.31
	c2.93,0,5.32,2.39,5.32,5.32v13.31C58.07,23.48,55.69,25.86,52.76,25.86z"/>
<path class="st0" d="M21.48,56.86H8.17c-2.93,0-5.32-2.39-5.32-5.32V38.24c0-2.93,2.39-5.32,5.32-5.32h13.31
	c2.93,0,5.32,2.39,5.32,5.32v13.31C26.8,54.48,24.41,56.86,21.48,56.86z"/>
<path class="st0" d="M52.76,56.86H39.44c-2.93,0-5.32-2.39-5.32-5.32V38.24c0-2.93,2.39-5.32,5.32-5.32h13.31
	c2.93,0,5.32,2.39,5.32,5.32v13.31C58.07,54.48,55.69,56.86,52.76,56.86z"/>
</svg>
